<mxfile host="app.diagrams.net" modified="2023-11-03T03:43:23.578Z" agent="Mozilla/5.0 (Windows NT 10.0; Win64; x64) AppleWebKit/537.36 (KHTML, like Gecko) Chrome/118.0.0.0 Safari/537.36" etag="4zcTsKsfJWxGq7w9_CaM" version="22.0.8" type="github">
  <diagram name="Page-1" id="5f0bae14-7c28-e335-631c-24af17079c00">
    <mxGraphModel dx="1257" dy="1653" grid="1" gridSize="10" guides="1" tooltips="1" connect="1" arrows="1" fold="1" page="1" pageScale="1" pageWidth="1100" pageHeight="850" background="none" math="0" shadow="0">
      <root>
        <mxCell id="0" />
        <mxCell id="1" parent="0" />
        <mxCell id="QajAvCTBg06aMJkXzNH2-1" value="" style="rounded=0;whiteSpace=wrap;html=1;movable=1;resizable=1;rotatable=1;deletable=1;editable=1;locked=0;connectable=1;" vertex="1" parent="1">
          <mxGeometry y="-120" width="1200" height="780" as="geometry" />
        </mxCell>
        <mxCell id="QajAvCTBg06aMJkXzNH2-2" value="&lt;font style=&quot;font-size: 25px;&quot;&gt;GestiÃ³n de seguimiento&lt;/font&gt;" style="text;strokeColor=none;align=center;fillColor=none;html=1;verticalAlign=middle;whiteSpace=wrap;rounded=0;movable=1;resizable=1;rotatable=1;deletable=1;editable=1;locked=0;connectable=1;" vertex="1" parent="1">
          <mxGeometry x="467.5" y="-110" width="265" height="30" as="geometry" />
        </mxCell>
        <mxCell id="QajAvCTBg06aMJkXzNH2-3" value="" style="html=1;strokeColor=none;resizeWidth=1;resizeHeight=1;fillColor=none;part=1;connectable=1;allowArrows=0;deletable=1;whiteSpace=wrap;movable=1;resizable=1;rotatable=1;editable=1;locked=0;" vertex="1" parent="1">
          <mxGeometry x="35" y="-50" width="573.3000000000002" height="403.22641509433964" as="geometry">
            <mxPoint y="30" as="offset" />
          </mxGeometry>
        </mxCell>
        <mxCell id="QajAvCTBg06aMJkXzNH2-4" value="Front-End" style="shape=folder;fontStyle=1;tabWidth=110;tabHeight=30;tabPosition=left;html=1;boundedLbl=1;labelInHeader=1;container=0;collapsible=0;whiteSpace=wrap;movable=1;resizable=1;rotatable=1;deletable=1;editable=1;locked=0;connectable=1;" vertex="1" parent="1">
          <mxGeometry x="42.5" y="-80" width="567.5" height="710" as="geometry" />
        </mxCell>
        <mxCell id="QajAvCTBg06aMJkXzNH2-5" value="Includes" style="shape=folder;fontStyle=1;tabWidth=110;tabHeight=30;tabPosition=left;html=1;boundedLbl=1;labelInHeader=1;container=0;collapsible=0;whiteSpace=wrap;movable=1;resizable=1;rotatable=1;deletable=1;editable=1;locked=0;connectable=1;" vertex="1" parent="1">
          <mxGeometry x="57.500000000000014" y="-30" width="440.8" height="220" as="geometry" />
        </mxCell>
        <mxCell id="QajAvCTBg06aMJkXzNH2-6" value="&amp;lt;&amp;lt;interface&amp;gt;&amp;gt;&lt;br&gt;orders.php" style="shape=component;align=left;spacingLeft=36;rounded=0;shadow=0;comic=0;labelBackgroundColor=none;strokeWidth=1;fontFamily=Verdana;fontSize=12;html=1;movable=1;resizable=1;rotatable=1;deletable=1;editable=1;locked=0;connectable=1;" vertex="1" parent="1">
          <mxGeometry x="307.5" y="365" width="180" height="60" as="geometry" />
        </mxCell>
        <mxCell id="QajAvCTBg06aMJkXzNH2-7" value="" style="ellipse;whiteSpace=wrap;html=1;align=center;aspect=fixed;fillColor=none;strokeColor=none;resizable=1;perimeter=centerPerimeter;rotatable=1;allowArrows=0;points=[];outlineConnect=1;movable=1;deletable=1;editable=1;locked=0;connectable=1;" vertex="1" parent="1">
          <mxGeometry x="432.5" y="240" width="10" height="10" as="geometry" />
        </mxCell>
        <mxCell id="QajAvCTBg06aMJkXzNH2-8" value="&amp;lt;&amp;lt;interface&amp;gt;&amp;gt;&lt;br&gt;tracking.php" style="shape=component;align=left;spacingLeft=36;rounded=0;shadow=0;comic=0;labelBackgroundColor=none;strokeWidth=1;fontFamily=Verdana;fontSize=12;html=1;movable=1;resizable=1;rotatable=1;deletable=1;editable=1;locked=0;connectable=1;" vertex="1" parent="1">
          <mxGeometry x="307.5" y="280" width="180" height="60" as="geometry" />
        </mxCell>
        <mxCell id="QajAvCTBg06aMJkXzNH2-9" value="" style="rounded=0;orthogonalLoop=1;jettySize=auto;html=1;endArrow=halfCircle;endFill=0;endSize=6;strokeWidth=1;sketch=0;movable=1;resizable=1;rotatable=1;deletable=1;editable=1;locked=0;connectable=1;" edge="1" parent="1" source="QajAvCTBg06aMJkXzNH2-6" target="QajAvCTBg06aMJkXzNH2-10">
          <mxGeometry relative="1" as="geometry">
            <mxPoint x="52.500000000000014" y="290" as="sourcePoint" />
          </mxGeometry>
        </mxCell>
        <mxCell id="QajAvCTBg06aMJkXzNH2-10" value="" style="ellipse;whiteSpace=wrap;html=1;align=center;aspect=fixed;fillColor=none;strokeColor=none;resizable=1;perimeter=centerPerimeter;rotatable=1;allowArrows=0;points=[];outlineConnect=1;movable=1;deletable=1;editable=1;locked=0;connectable=1;" vertex="1" parent="1">
          <mxGeometry x="197.5" y="390" width="10" height="10" as="geometry" />
        </mxCell>
        <mxCell id="QajAvCTBg06aMJkXzNH2-11" value="" style="rounded=0;orthogonalLoop=1;jettySize=auto;html=1;endArrow=halfCircle;endFill=0;endSize=6;strokeWidth=1;sketch=0;movable=1;resizable=1;rotatable=1;deletable=1;editable=1;locked=0;connectable=1;" edge="1" parent="1" source="QajAvCTBg06aMJkXzNH2-6">
          <mxGeometry relative="1" as="geometry">
            <mxPoint x="242.5" y="325" as="sourcePoint" />
            <mxPoint x="397" y="490" as="targetPoint" />
          </mxGeometry>
        </mxCell>
        <mxCell id="QajAvCTBg06aMJkXzNH2-12" value="" style="ellipse;whiteSpace=wrap;html=1;align=center;aspect=fixed;fillColor=none;strokeColor=none;resizable=1;perimeter=centerPerimeter;rotatable=1;allowArrows=0;points=[];outlineConnect=1;movable=1;deletable=1;editable=1;locked=0;connectable=1;" vertex="1" parent="1">
          <mxGeometry x="392.5" y="510" width="10" height="10" as="geometry" />
        </mxCell>
        <mxCell id="QajAvCTBg06aMJkXzNH2-13" value="" style="rounded=0;orthogonalLoop=1;jettySize=auto;html=1;endArrow=halfCircle;endFill=0;endSize=6;strokeWidth=1;sketch=0;exitX=0.5;exitY=0;exitDx=0;exitDy=0;movable=1;resizable=1;rotatable=1;deletable=1;editable=1;locked=0;connectable=1;" edge="1" parent="1" source="QajAvCTBg06aMJkXzNH2-8" target="QajAvCTBg06aMJkXzNH2-14">
          <mxGeometry relative="1" as="geometry">
            <mxPoint x="332.5" y="336" as="sourcePoint" />
          </mxGeometry>
        </mxCell>
        <mxCell id="QajAvCTBg06aMJkXzNH2-14" value="" style="ellipse;whiteSpace=wrap;html=1;align=center;aspect=fixed;fillColor=none;strokeColor=none;resizable=1;perimeter=centerPerimeter;rotatable=1;allowArrows=0;points=[];outlineConnect=1;movable=1;deletable=1;editable=1;locked=0;connectable=1;" vertex="1" parent="1">
          <mxGeometry x="392.5" y="210" width="10" height="10" as="geometry" />
        </mxCell>
        <mxCell id="QajAvCTBg06aMJkXzNH2-15" value="" style="rounded=0;orthogonalLoop=1;jettySize=auto;html=1;endArrow=oval;endFill=0;sketch=0;sourcePerimeterSpacing=0;targetPerimeterSpacing=0;endSize=10;exitX=0.724;exitY=0.992;exitDx=0;exitDy=0;exitPerimeter=0;movable=1;resizable=1;rotatable=1;deletable=1;editable=1;locked=0;connectable=1;" edge="1" parent="1" source="QajAvCTBg06aMJkXzNH2-6" target="QajAvCTBg06aMJkXzNH2-16">
          <mxGeometry relative="1" as="geometry">
            <mxPoint x="402.5" y="305" as="sourcePoint" />
          </mxGeometry>
        </mxCell>
        <mxCell id="QajAvCTBg06aMJkXzNH2-16" value="" style="ellipse;whiteSpace=wrap;html=1;align=center;aspect=fixed;fillColor=none;strokeColor=none;resizable=1;perimeter=centerPerimeter;rotatable=1;allowArrows=0;points=[];outlineConnect=1;movable=1;deletable=1;editable=1;locked=0;connectable=1;" vertex="1" parent="1">
          <mxGeometry x="432.5" y="500" width="10" height="10" as="geometry" />
        </mxCell>
        <mxCell id="QajAvCTBg06aMJkXzNH2-17" value="&amp;lt;&amp;lt;file&amp;gt;&amp;gt;&lt;br&gt;styles.css" style="shape=component;align=left;spacingLeft=36;rounded=0;shadow=0;comic=0;labelBackgroundColor=none;strokeWidth=1;fontFamily=Verdana;fontSize=12;html=1;movable=1;resizable=1;rotatable=1;deletable=1;editable=1;locked=0;connectable=1;" vertex="1" parent="1">
          <mxGeometry x="122.49999999999999" y="70.79992119003055" width="160" height="65.01822480543788" as="geometry" />
        </mxCell>
        <mxCell id="QajAvCTBg06aMJkXzNH2-18" value="" style="rounded=0;orthogonalLoop=1;jettySize=auto;html=1;endArrow=oval;endFill=0;sketch=0;sourcePerimeterSpacing=0;targetPerimeterSpacing=0;endSize=10;movable=1;resizable=1;rotatable=1;deletable=1;editable=1;locked=0;connectable=1;" edge="1" parent="1" source="QajAvCTBg06aMJkXzNH2-17" target="QajAvCTBg06aMJkXzNH2-10">
          <mxGeometry relative="1" as="geometry">
            <mxPoint x="47.500000000000014" y="305" as="sourcePoint" />
          </mxGeometry>
        </mxCell>
        <mxCell id="QajAvCTBg06aMJkXzNH2-19" value="" style="rounded=0;orthogonalLoop=1;jettySize=auto;html=1;endArrow=oval;endFill=0;sketch=0;sourcePerimeterSpacing=0;targetPerimeterSpacing=0;endSize=10;exitX=0.195;exitY=1.009;exitDx=0;exitDy=0;exitPerimeter=0;movable=1;resizable=1;rotatable=1;deletable=1;editable=1;locked=0;connectable=1;" edge="1" parent="1" source="QajAvCTBg06aMJkXzNH2-17">
          <mxGeometry relative="1" as="geometry">
            <mxPoint x="202.5" y="325" as="sourcePoint" />
            <mxPoint x="397" y="490" as="targetPoint" />
            <Array as="points">
              <mxPoint x="154" y="490" />
            </Array>
          </mxGeometry>
        </mxCell>
        <mxCell id="QajAvCTBg06aMJkXzNH2-20" value="&amp;lt;&amp;lt;file&amp;gt;&amp;gt;&lt;br&gt;mail.php" style="shape=module;align=left;spacingLeft=20;align=center;verticalAlign=top;whiteSpace=wrap;html=1;movable=1;resizable=1;rotatable=1;deletable=1;editable=1;locked=0;connectable=1;" vertex="1" parent="1">
          <mxGeometry x="362.5" y="8.998106590483687" width="100" height="54.18185400453157" as="geometry" />
        </mxCell>
        <mxCell id="QajAvCTBg06aMJkXzNH2-21" value="" style="rounded=0;orthogonalLoop=1;jettySize=auto;html=1;endArrow=halfCircle;endFill=0;endSize=6;strokeWidth=1;sketch=0;exitX=0;exitY=0;exitDx=0;exitDy=15;exitPerimeter=0;movable=1;resizable=1;rotatable=1;deletable=1;editable=1;locked=0;connectable=1;entryX=0.463;entryY=-0.238;entryDx=0;entryDy=0;entryPerimeter=0;" edge="1" parent="1" source="QajAvCTBg06aMJkXzNH2-20" target="QajAvCTBg06aMJkXzNH2-16">
          <mxGeometry relative="1" as="geometry">
            <mxPoint x="442.5" y="305" as="sourcePoint" />
            <Array as="points">
              <mxPoint x="82.50000000000001" y="24" />
              <mxPoint x="83" y="505" />
            </Array>
          </mxGeometry>
        </mxCell>
        <mxCell id="QajAvCTBg06aMJkXzNH2-22" value="Back-End" style="shape=folder;fontStyle=1;tabWidth=110;tabHeight=30;tabPosition=left;html=1;boundedLbl=1;labelInHeader=1;container=1;collapsible=0;whiteSpace=wrap;movable=1;resizable=1;rotatable=1;deletable=1;editable=1;locked=0;connectable=1;" vertex="1" parent="1">
          <mxGeometry x="650" y="-70" width="510" height="700" as="geometry" />
        </mxCell>
        <mxCell id="QajAvCTBg06aMJkXzNH2-23" value="" style="html=1;strokeColor=none;resizeWidth=1;resizeHeight=1;fillColor=none;part=1;connectable=1;allowArrows=0;deletable=1;whiteSpace=wrap;movable=1;resizable=1;rotatable=1;editable=1;locked=0;" vertex="1" parent="QajAvCTBg06aMJkXzNH2-22">
          <mxGeometry width="510" height="490" relative="1" as="geometry">
            <mxPoint y="30" as="offset" />
          </mxGeometry>
        </mxCell>
        <mxCell id="QajAvCTBg06aMJkXzNH2-24" value="&amp;lt;&amp;lt;file&amp;gt;&amp;gt;&lt;br&gt;connection.php" style="shape=component;align=left;spacingLeft=36;rounded=0;shadow=0;comic=0;labelBackgroundColor=none;strokeWidth=1;fontFamily=Verdana;fontSize=12;html=1;movable=1;resizable=1;rotatable=1;deletable=1;editable=1;locked=0;connectable=1;" vertex="1" parent="QajAvCTBg06aMJkXzNH2-22">
          <mxGeometry x="40" y="145" width="170" height="60" as="geometry" />
        </mxCell>
        <mxCell id="QajAvCTBg06aMJkXzNH2-25" value="&amp;lt;&amp;lt;table&amp;gt;&amp;gt;&lt;br&gt;orders" style="shape=module;align=left;spacingLeft=20;align=center;verticalAlign=top;whiteSpace=wrap;html=1;movable=1;resizable=1;rotatable=1;deletable=1;editable=1;locked=0;connectable=1;" vertex="1" parent="QajAvCTBg06aMJkXzNH2-22">
          <mxGeometry x="390" y="415" width="100" height="50" as="geometry" />
        </mxCell>
        <mxCell id="QajAvCTBg06aMJkXzNH2-26" value="&amp;lt;&amp;lt;table&amp;gt;&amp;gt;&lt;br&gt;zones" style="shape=module;align=left;spacingLeft=20;align=center;verticalAlign=top;whiteSpace=wrap;html=1;movable=1;resizable=1;rotatable=1;deletable=1;editable=1;locked=0;connectable=1;" vertex="1" parent="QajAvCTBg06aMJkXzNH2-22">
          <mxGeometry x="290" y="150" width="100" height="50" as="geometry" />
        </mxCell>
        <mxCell id="QajAvCTBg06aMJkXzNH2-27" value="&amp;lt;&amp;lt;query&amp;gt;&amp;gt;&lt;br&gt;SELECT * FROM orders ORDER BY CP ASC" style="shape=component;align=left;spacingLeft=36;rounded=0;shadow=0;comic=0;labelBackgroundColor=none;strokeWidth=1;fontFamily=Verdana;fontSize=12;html=1;movable=1;resizable=1;rotatable=1;deletable=1;editable=1;locked=0;connectable=1;" vertex="1" parent="QajAvCTBg06aMJkXzNH2-22">
          <mxGeometry x="15" y="260" width="310" height="60" as="geometry" />
        </mxCell>
        <mxCell id="QajAvCTBg06aMJkXzNH2-28" value="verification.php" style="shape=component;align=left;spacingLeft=36;rounded=0;shadow=0;comic=0;labelBackgroundColor=none;strokeWidth=1;fontFamily=Verdana;fontSize=12;html=1;fillColor=#fff2cc;strokeColor=#d6b656;movable=1;resizable=1;rotatable=1;deletable=1;editable=1;locked=0;connectable=1;" vertex="1" parent="QajAvCTBg06aMJkXzNH2-22">
          <mxGeometry x="50" y="600" width="150" height="60" as="geometry" />
        </mxCell>
        <mxCell id="QajAvCTBg06aMJkXzNH2-29" value="&amp;lt;&amp;lt;table&amp;gt;&amp;gt;&lt;br&gt;users" style="shape=component;align=left;spacingLeft=36;rounded=0;shadow=0;comic=0;labelBackgroundColor=none;strokeWidth=1;fontFamily=Verdana;fontSize=12;html=1;fillColor=#fff2cc;strokeColor=#d6b656;movable=1;resizable=1;rotatable=1;deletable=1;editable=1;locked=0;connectable=1;" vertex="1" parent="QajAvCTBg06aMJkXzNH2-22">
          <mxGeometry x="300" y="600" width="120" height="60" as="geometry" />
        </mxCell>
        <mxCell id="QajAvCTBg06aMJkXzNH2-30" value="" style="rounded=0;orthogonalLoop=1;jettySize=auto;html=1;endArrow=halfCircle;endFill=0;endSize=6;strokeWidth=1;sketch=0;movable=1;resizable=1;rotatable=1;deletable=1;editable=1;locked=0;connectable=1;" edge="1" parent="QajAvCTBg06aMJkXzNH2-22" source="QajAvCTBg06aMJkXzNH2-28" target="QajAvCTBg06aMJkXzNH2-32">
          <mxGeometry relative="1" as="geometry">
            <mxPoint x="275" y="635" as="sourcePoint" />
          </mxGeometry>
        </mxCell>
        <mxCell id="QajAvCTBg06aMJkXzNH2-31" value="" style="rounded=0;orthogonalLoop=1;jettySize=auto;html=1;endArrow=oval;endFill=0;sketch=0;sourcePerimeterSpacing=0;targetPerimeterSpacing=0;endSize=10;movable=1;resizable=1;rotatable=1;deletable=1;editable=1;locked=0;connectable=1;" edge="1" parent="QajAvCTBg06aMJkXzNH2-22" source="QajAvCTBg06aMJkXzNH2-29" target="QajAvCTBg06aMJkXzNH2-32">
          <mxGeometry relative="1" as="geometry">
            <mxPoint x="235" y="635" as="sourcePoint" />
          </mxGeometry>
        </mxCell>
        <mxCell id="QajAvCTBg06aMJkXzNH2-32" value="" style="ellipse;whiteSpace=wrap;html=1;align=center;aspect=fixed;fillColor=none;strokeColor=none;resizable=1;perimeter=centerPerimeter;rotatable=1;allowArrows=0;points=[];outlineConnect=1;movable=1;deletable=1;editable=1;locked=0;connectable=1;" vertex="1" parent="QajAvCTBg06aMJkXzNH2-22">
          <mxGeometry x="250" y="625" width="10" height="10" as="geometry" />
        </mxCell>
        <mxCell id="QajAvCTBg06aMJkXzNH2-33" value="" style="rounded=0;orthogonalLoop=1;jettySize=auto;html=1;endArrow=halfCircle;endFill=0;endSize=6;strokeWidth=1;sketch=0;movable=1;resizable=1;rotatable=1;deletable=1;editable=1;locked=0;connectable=1;" edge="1" parent="QajAvCTBg06aMJkXzNH2-22" source="QajAvCTBg06aMJkXzNH2-24" target="QajAvCTBg06aMJkXzNH2-35">
          <mxGeometry relative="1" as="geometry">
            <mxPoint x="275" y="215" as="sourcePoint" />
          </mxGeometry>
        </mxCell>
        <mxCell id="QajAvCTBg06aMJkXzNH2-34" value="" style="rounded=0;orthogonalLoop=1;jettySize=auto;html=1;endArrow=oval;endFill=0;sketch=0;sourcePerimeterSpacing=0;targetPerimeterSpacing=0;endSize=10;movable=1;resizable=1;rotatable=1;deletable=1;editable=1;locked=0;connectable=1;" edge="1" parent="QajAvCTBg06aMJkXzNH2-22" source="QajAvCTBg06aMJkXzNH2-26" target="QajAvCTBg06aMJkXzNH2-35">
          <mxGeometry relative="1" as="geometry">
            <mxPoint x="235" y="215" as="sourcePoint" />
          </mxGeometry>
        </mxCell>
        <mxCell id="QajAvCTBg06aMJkXzNH2-35" value="" style="ellipse;whiteSpace=wrap;html=1;align=center;aspect=fixed;fillColor=none;strokeColor=none;resizable=1;perimeter=centerPerimeter;rotatable=1;allowArrows=0;points=[];outlineConnect=1;movable=1;deletable=1;editable=1;locked=0;connectable=1;" vertex="1" parent="QajAvCTBg06aMJkXzNH2-22">
          <mxGeometry x="250" y="170" width="10" height="10" as="geometry" />
        </mxCell>
        <mxCell id="QajAvCTBg06aMJkXzNH2-36" value="&amp;lt;&amp;lt;query&amp;gt;&amp;gt;&lt;br&gt;UPDATE orders SET status = 1&lt;br&gt;WHERE NumPedido = $numPedido" style="shape=component;align=left;spacingLeft=36;rounded=0;shadow=0;comic=0;labelBackgroundColor=none;strokeWidth=1;fontFamily=Verdana;fontSize=12;html=1;movable=1;resizable=1;rotatable=1;deletable=1;editable=1;locked=0;connectable=1;" vertex="1" parent="QajAvCTBg06aMJkXzNH2-22">
          <mxGeometry x="20" y="510" width="260" height="60" as="geometry" />
        </mxCell>
        <mxCell id="QajAvCTBg06aMJkXzNH2-37" value="" style="rounded=0;orthogonalLoop=1;jettySize=auto;html=1;endArrow=halfCircle;endFill=0;endSize=6;strokeWidth=1;sketch=0;movable=1;resizable=1;rotatable=1;deletable=1;editable=1;locked=0;connectable=1;" edge="1" parent="QajAvCTBg06aMJkXzNH2-22" source="QajAvCTBg06aMJkXzNH2-25" target="QajAvCTBg06aMJkXzNH2-39">
          <mxGeometry relative="1" as="geometry">
            <mxPoint x="380" y="545" as="sourcePoint" />
          </mxGeometry>
        </mxCell>
        <mxCell id="QajAvCTBg06aMJkXzNH2-38" value="" style="rounded=0;orthogonalLoop=1;jettySize=auto;html=1;endArrow=oval;endFill=0;sketch=0;sourcePerimeterSpacing=0;targetPerimeterSpacing=0;endSize=10;movable=1;resizable=1;rotatable=1;deletable=1;editable=1;locked=0;connectable=1;exitX=0.994;exitY=0.967;exitDx=0;exitDy=0;exitPerimeter=0;" edge="1" parent="QajAvCTBg06aMJkXzNH2-22" source="QajAvCTBg06aMJkXzNH2-43" target="QajAvCTBg06aMJkXzNH2-39">
          <mxGeometry relative="1" as="geometry">
            <mxPoint x="162.11076923076905" y="380" as="sourcePoint" />
          </mxGeometry>
        </mxCell>
        <mxCell id="QajAvCTBg06aMJkXzNH2-39" value="" style="ellipse;whiteSpace=wrap;html=1;align=center;aspect=fixed;fillColor=none;strokeColor=none;resizable=1;perimeter=centerPerimeter;rotatable=1;allowArrows=0;points=[];outlineConnect=1;movable=1;deletable=1;editable=1;locked=0;connectable=1;" vertex="1" parent="QajAvCTBg06aMJkXzNH2-22">
          <mxGeometry x="310" y="435" width="10" height="10" as="geometry" />
        </mxCell>
        <mxCell id="QajAvCTBg06aMJkXzNH2-40" value="" style="rounded=0;orthogonalLoop=1;jettySize=auto;html=1;endArrow=halfCircle;endFill=0;endSize=6;strokeWidth=1;sketch=0;movable=1;resizable=1;rotatable=1;deletable=1;editable=1;locked=0;connectable=1;exitX=1;exitY=0.05;exitDx=0;exitDy=0;exitPerimeter=0;" edge="1" parent="QajAvCTBg06aMJkXzNH2-22" source="QajAvCTBg06aMJkXzNH2-43" target="QajAvCTBg06aMJkXzNH2-42">
          <mxGeometry relative="1" as="geometry">
            <mxPoint x="450" y="420" as="sourcePoint" />
          </mxGeometry>
        </mxCell>
        <mxCell id="QajAvCTBg06aMJkXzNH2-41" value="" style="rounded=0;orthogonalLoop=1;jettySize=auto;html=1;endArrow=oval;endFill=0;sketch=0;sourcePerimeterSpacing=0;targetPerimeterSpacing=0;endSize=10;movable=1;resizable=1;rotatable=1;deletable=1;editable=1;locked=0;connectable=1;" edge="1" parent="QajAvCTBg06aMJkXzNH2-22" source="QajAvCTBg06aMJkXzNH2-25" target="QajAvCTBg06aMJkXzNH2-42">
          <mxGeometry relative="1" as="geometry">
            <mxPoint x="410" y="420" as="sourcePoint" />
          </mxGeometry>
        </mxCell>
        <mxCell id="QajAvCTBg06aMJkXzNH2-42" value="" style="ellipse;whiteSpace=wrap;html=1;align=center;aspect=fixed;fillColor=none;strokeColor=none;resizable=1;perimeter=centerPerimeter;rotatable=1;allowArrows=0;points=[];outlineConnect=1;movable=1;deletable=1;editable=1;locked=0;connectable=1;" vertex="1" parent="QajAvCTBg06aMJkXzNH2-22">
          <mxGeometry x="435" y="380" width="10" height="10" as="geometry" />
        </mxCell>
        <mxCell id="QajAvCTBg06aMJkXzNH2-43" value="&amp;lt;&amp;lt;file&amp;gt;&amp;gt;&lt;br&gt;connection.php" style="shape=component;align=left;spacingLeft=36;rounded=0;shadow=0;comic=0;labelBackgroundColor=none;strokeWidth=1;fontFamily=Verdana;fontSize=12;html=1;movable=1;resizable=1;rotatable=1;deletable=1;editable=1;locked=0;connectable=1;" vertex="1" parent="QajAvCTBg06aMJkXzNH2-22">
          <mxGeometry x="65" y="380" width="170" height="60" as="geometry" />
        </mxCell>
        <mxCell id="QajAvCTBg06aMJkXzNH2-44" value="" style="rounded=0;orthogonalLoop=1;jettySize=auto;html=1;endArrow=halfCircle;endFill=0;endSize=6;strokeWidth=1;sketch=0;" edge="1" parent="QajAvCTBg06aMJkXzNH2-22" source="QajAvCTBg06aMJkXzNH2-27" target="QajAvCTBg06aMJkXzNH2-46">
          <mxGeometry relative="1" as="geometry">
            <mxPoint x="200" y="355" as="sourcePoint" />
          </mxGeometry>
        </mxCell>
        <mxCell id="QajAvCTBg06aMJkXzNH2-45" value="" style="rounded=0;orthogonalLoop=1;jettySize=auto;html=1;endArrow=oval;endFill=0;sketch=0;sourcePerimeterSpacing=0;targetPerimeterSpacing=0;endSize=10;" edge="1" parent="QajAvCTBg06aMJkXzNH2-22" target="QajAvCTBg06aMJkXzNH2-46">
          <mxGeometry relative="1" as="geometry">
            <mxPoint x="170" y="383" as="sourcePoint" />
          </mxGeometry>
        </mxCell>
        <mxCell id="QajAvCTBg06aMJkXzNH2-46" value="" style="ellipse;whiteSpace=wrap;html=1;align=center;aspect=fixed;fillColor=none;strokeColor=none;resizable=0;perimeter=centerPerimeter;rotatable=0;allowArrows=0;points=[];outlineConnect=1;" vertex="1" parent="QajAvCTBg06aMJkXzNH2-22">
          <mxGeometry x="165" y="350" width="10" height="10" as="geometry" />
        </mxCell>
        <mxCell id="QajAvCTBg06aMJkXzNH2-47" value="" style="rounded=0;orthogonalLoop=1;jettySize=auto;html=1;endArrow=halfCircle;endFill=0;endSize=6;strokeWidth=1;sketch=0;" edge="1" parent="QajAvCTBg06aMJkXzNH2-22" source="QajAvCTBg06aMJkXzNH2-43" target="QajAvCTBg06aMJkXzNH2-49">
          <mxGeometry relative="1" as="geometry">
            <mxPoint x="190" y="475" as="sourcePoint" />
          </mxGeometry>
        </mxCell>
        <mxCell id="QajAvCTBg06aMJkXzNH2-48" value="" style="rounded=0;orthogonalLoop=1;jettySize=auto;html=1;endArrow=oval;endFill=0;sketch=0;sourcePerimeterSpacing=0;targetPerimeterSpacing=0;endSize=10;" edge="1" parent="QajAvCTBg06aMJkXzNH2-22" source="QajAvCTBg06aMJkXzNH2-36" target="QajAvCTBg06aMJkXzNH2-49">
          <mxGeometry relative="1" as="geometry">
            <mxPoint x="150" y="475" as="sourcePoint" />
          </mxGeometry>
        </mxCell>
        <mxCell id="QajAvCTBg06aMJkXzNH2-49" value="" style="ellipse;whiteSpace=wrap;html=1;align=center;aspect=fixed;fillColor=none;strokeColor=none;resizable=0;perimeter=centerPerimeter;rotatable=0;allowArrows=0;points=[];outlineConnect=1;" vertex="1" parent="QajAvCTBg06aMJkXzNH2-22">
          <mxGeometry x="145" y="470" width="10" height="10" as="geometry" />
        </mxCell>
        <mxCell id="QajAvCTBg06aMJkXzNH2-50" value="" style="rounded=0;orthogonalLoop=1;jettySize=auto;html=1;endArrow=oval;endFill=0;sketch=0;sourcePerimeterSpacing=0;targetPerimeterSpacing=0;endSize=10;movable=1;resizable=1;rotatable=1;deletable=1;editable=1;locked=0;connectable=1;" edge="1" parent="1" source="QajAvCTBg06aMJkXzNH2-51" target="QajAvCTBg06aMJkXzNH2-14">
          <mxGeometry relative="1" as="geometry">
            <mxPoint x="292.5" y="336" as="sourcePoint" />
          </mxGeometry>
        </mxCell>
        <mxCell id="QajAvCTBg06aMJkXzNH2-51" value="&amp;lt;&amp;lt;file&amp;gt;&amp;gt;&lt;br&gt;google.php" style="shape=component;align=left;spacingLeft=36;rounded=0;shadow=0;comic=0;labelBackgroundColor=none;strokeWidth=1;fontFamily=Verdana;fontSize=12;html=1;movable=1;resizable=1;rotatable=1;deletable=1;editable=1;locked=0;connectable=1;" vertex="1" parent="1">
          <mxGeometry x="312.5" y="70.79992119003055" width="170" height="65.01822480543788" as="geometry" />
        </mxCell>
        <mxCell id="QajAvCTBg06aMJkXzNH2-52" value="login.php" style="shape=component;align=left;spacingLeft=36;rounded=0;shadow=0;comic=0;labelBackgroundColor=none;strokeWidth=1;fontFamily=Verdana;fontSize=12;html=1;fillColor=#fff2cc;strokeColor=#d6b656;movable=1;resizable=1;rotatable=1;deletable=1;editable=1;locked=0;connectable=1;" vertex="1" parent="1">
          <mxGeometry x="337.5" y="530" width="120" height="60" as="geometry" />
        </mxCell>
        <mxCell id="QajAvCTBg06aMJkXzNH2-53" value="&lt;br&gt;" style="endArrow=open;endSize=12;dashed=1;html=1;rounded=0;entryX=1;entryY=0.25;entryDx=0;entryDy=0;exitX=1.008;exitY=1;exitDx=0;exitDy=0;exitPerimeter=0;movable=1;resizable=1;rotatable=1;deletable=1;editable=1;locked=0;connectable=1;" edge="1" parent="1" source="QajAvCTBg06aMJkXzNH2-6" target="QajAvCTBg06aMJkXzNH2-52">
          <mxGeometry width="160" relative="1" as="geometry">
            <mxPoint x="211" y="480" as="sourcePoint" />
            <mxPoint x="159" y="449" as="targetPoint" />
            <Array as="points">
              <mxPoint x="530" y="425" />
              <mxPoint x="530" y="545" />
            </Array>
          </mxGeometry>
        </mxCell>
        <mxCell id="QajAvCTBg06aMJkXzNH2-54" value="&lt;br&gt;" style="endArrow=open;endSize=12;dashed=1;html=1;rounded=0;fontStyle=1;entryX=1;entryY=0.75;entryDx=0;entryDy=0;movable=1;resizable=1;rotatable=1;deletable=1;editable=1;locked=0;connectable=1;" edge="1" parent="1" source="QajAvCTBg06aMJkXzNH2-8" target="QajAvCTBg06aMJkXzNH2-52">
          <mxGeometry width="160" relative="1" as="geometry">
            <mxPoint x="221" y="490" as="sourcePoint" />
            <mxPoint x="169" y="459" as="targetPoint" />
            <Array as="points">
              <mxPoint x="570" y="310" />
              <mxPoint x="570" y="575" />
            </Array>
          </mxGeometry>
        </mxCell>
        <mxCell id="QajAvCTBg06aMJkXzNH2-55" value="" style="endArrow=open;endSize=12;dashed=1;html=1;rounded=0;movable=1;resizable=1;rotatable=1;deletable=1;editable=1;locked=0;connectable=1;" edge="1" parent="1" source="QajAvCTBg06aMJkXzNH2-52" target="QajAvCTBg06aMJkXzNH2-28">
          <mxGeometry width="160" relative="1" as="geometry">
            <mxPoint x="410" y="610" as="sourcePoint" />
            <mxPoint x="570" y="610" as="targetPoint" />
            <Array as="points">
              <mxPoint x="398" y="620" />
              <mxPoint x="775" y="620" />
            </Array>
          </mxGeometry>
        </mxCell>
        <mxCell id="QajAvCTBg06aMJkXzNH2-56" value="" style="rounded=0;orthogonalLoop=1;jettySize=auto;html=1;endArrow=halfCircle;endFill=0;endSize=6;strokeWidth=1;sketch=0;movable=1;resizable=1;rotatable=1;deletable=1;editable=1;locked=0;connectable=1;" edge="1" parent="1" target="QajAvCTBg06aMJkXzNH2-58">
          <mxGeometry relative="1" as="geometry">
            <mxPoint x="490" y="375" as="sourcePoint" />
          </mxGeometry>
        </mxCell>
        <mxCell id="QajAvCTBg06aMJkXzNH2-57" value="" style="rounded=0;orthogonalLoop=1;jettySize=auto;html=1;endArrow=oval;endFill=0;sketch=0;sourcePerimeterSpacing=0;targetPerimeterSpacing=0;endSize=10;movable=1;resizable=1;rotatable=1;deletable=1;editable=1;locked=0;connectable=1;" edge="1" parent="1" source="QajAvCTBg06aMJkXzNH2-27" target="QajAvCTBg06aMJkXzNH2-58">
          <mxGeometry relative="1" as="geometry">
            <mxPoint x="490" y="375" as="sourcePoint" />
            <Array as="points">
              <mxPoint x="635" y="220" />
            </Array>
          </mxGeometry>
        </mxCell>
        <mxCell id="QajAvCTBg06aMJkXzNH2-58" value="" style="ellipse;whiteSpace=wrap;html=1;align=center;aspect=fixed;fillColor=none;strokeColor=none;resizable=1;perimeter=centerPerimeter;rotatable=1;allowArrows=0;points=[];outlineConnect=1;movable=1;deletable=1;editable=1;locked=0;connectable=1;" vertex="1" parent="1">
          <mxGeometry x="630" y="370" width="10" height="10" as="geometry" />
        </mxCell>
        <mxCell id="QajAvCTBg06aMJkXzNH2-59" value="" style="rounded=0;orthogonalLoop=1;jettySize=auto;html=1;endArrow=halfCircle;endFill=0;endSize=6;strokeWidth=1;sketch=0;movable=1;resizable=1;rotatable=1;deletable=1;editable=1;locked=0;connectable=1;" edge="1" parent="1" source="QajAvCTBg06aMJkXzNH2-24" target="QajAvCTBg06aMJkXzNH2-61">
          <mxGeometry relative="1" as="geometry">
            <mxPoint x="570" y="103" as="sourcePoint" />
          </mxGeometry>
        </mxCell>
        <mxCell id="QajAvCTBg06aMJkXzNH2-60" value="" style="rounded=0;orthogonalLoop=1;jettySize=auto;html=1;endArrow=oval;endFill=0;sketch=0;sourcePerimeterSpacing=0;targetPerimeterSpacing=0;endSize=10;movable=1;resizable=1;rotatable=1;deletable=1;editable=1;locked=0;connectable=1;" edge="1" parent="1" target="QajAvCTBg06aMJkXzNH2-61">
          <mxGeometry relative="1" as="geometry">
            <mxPoint x="480" y="103" as="sourcePoint" />
          </mxGeometry>
        </mxCell>
        <mxCell id="QajAvCTBg06aMJkXzNH2-61" value="" style="ellipse;whiteSpace=wrap;html=1;align=center;aspect=fixed;fillColor=none;strokeColor=none;resizable=1;perimeter=centerPerimeter;rotatable=1;allowArrows=0;points=[];outlineConnect=1;movable=1;deletable=1;editable=1;locked=0;connectable=1;" vertex="1" parent="1">
          <mxGeometry x="575" y="98.31" width="10" height="10" as="geometry" />
        </mxCell>
        <mxCell id="QajAvCTBg06aMJkXzNH2-62" value="" style="rounded=0;orthogonalLoop=1;jettySize=auto;html=1;endArrow=halfCircle;endFill=0;endSize=6;strokeWidth=1;sketch=0;movable=1;resizable=1;rotatable=1;deletable=1;editable=1;locked=0;connectable=1;" edge="1" parent="1" source="QajAvCTBg06aMJkXzNH2-36" target="QajAvCTBg06aMJkXzNH2-64">
          <mxGeometry relative="1" as="geometry">
            <mxPoint x="660" y="470" as="sourcePoint" />
            <Array as="points">
              <mxPoint x="625" y="470" />
            </Array>
          </mxGeometry>
        </mxCell>
        <mxCell id="QajAvCTBg06aMJkXzNH2-63" value="" style="rounded=0;orthogonalLoop=1;jettySize=auto;html=1;endArrow=oval;endFill=0;sketch=0;sourcePerimeterSpacing=0;targetPerimeterSpacing=0;endSize=10;movable=1;resizable=1;rotatable=1;deletable=1;editable=1;locked=0;connectable=1;" edge="1" parent="1" source="QajAvCTBg06aMJkXzNH2-6" target="QajAvCTBg06aMJkXzNH2-64">
          <mxGeometry relative="1" as="geometry">
            <mxPoint x="620" y="470" as="sourcePoint" />
          </mxGeometry>
        </mxCell>
        <mxCell id="QajAvCTBg06aMJkXzNH2-64" value="" style="ellipse;whiteSpace=wrap;html=1;align=center;aspect=fixed;fillColor=none;strokeColor=none;resizable=1;perimeter=centerPerimeter;rotatable=1;allowArrows=0;points=[];outlineConnect=1;movable=1;deletable=1;editable=1;locked=0;connectable=1;" vertex="1" parent="1">
          <mxGeometry x="620" y="390" width="10" height="10" as="geometry" />
        </mxCell>
      </root>
    </mxGraphModel>
  </diagram>
</mxfile>
